<mxfile host="app.diagrams.net" modified="2023-05-05T16:06:43.433Z" agent="Mozilla/5.0 (Windows NT 10.0; Win64; x64) AppleWebKit/537.36 (KHTML, like Gecko) Chrome/112.0.0.0 Safari/537.36" etag="HcJuuwfhvmsinhfaDS4B" version="21.2.9" type="google">
  <diagram name="Page-1" id="cOhOOoq8ZFJ1gssm_lZi">
    <mxGraphModel grid="0" page="0" gridSize="10" guides="1" tooltips="1" connect="1" arrows="1" fold="1" pageScale="1" pageWidth="850" pageHeight="1100" math="0" shadow="0">
      <root>
        <mxCell id="0" />
        <mxCell id="1" parent="0" />
        <mxCell id="IJSfdtI_TcMY3-XAgbR3-41" value="User" style="swimlane;fontStyle=0;childLayout=stackLayout;horizontal=1;startSize=30;horizontalStack=0;resizeParent=1;resizeParentMax=0;resizeLast=0;collapsible=1;marginBottom=0;whiteSpace=wrap;html=1;fontSize=16;" vertex="1" parent="1">
          <mxGeometry x="163" y="-441" width="313" height="120" as="geometry" />
        </mxCell>
        <mxCell id="IJSfdtI_TcMY3-XAgbR3-42" value="id(pk)" style="text;strokeColor=none;fillColor=none;align=left;verticalAlign=middle;spacingLeft=4;spacingRight=4;overflow=hidden;points=[[0,0.5],[1,0.5]];portConstraint=eastwest;rotatable=0;whiteSpace=wrap;html=1;fontSize=16;" vertex="1" parent="IJSfdtI_TcMY3-XAgbR3-41">
          <mxGeometry y="30" width="313" height="30" as="geometry" />
        </mxCell>
        <mxCell id="IJSfdtI_TcMY3-XAgbR3-43" value="username" style="text;strokeColor=none;fillColor=none;align=left;verticalAlign=middle;spacingLeft=4;spacingRight=4;overflow=hidden;points=[[0,0.5],[1,0.5]];portConstraint=eastwest;rotatable=0;whiteSpace=wrap;html=1;fontSize=16;" vertex="1" parent="IJSfdtI_TcMY3-XAgbR3-41">
          <mxGeometry y="60" width="313" height="30" as="geometry" />
        </mxCell>
        <mxCell id="IJSfdtI_TcMY3-XAgbR3-44" value="password" style="text;strokeColor=none;fillColor=none;align=left;verticalAlign=middle;spacingLeft=4;spacingRight=4;overflow=hidden;points=[[0,0.5],[1,0.5]];portConstraint=eastwest;rotatable=0;whiteSpace=wrap;html=1;fontSize=16;" vertex="1" parent="IJSfdtI_TcMY3-XAgbR3-41">
          <mxGeometry y="90" width="313" height="30" as="geometry" />
        </mxCell>
        <mxCell id="IJSfdtI_TcMY3-XAgbR3-45" value="Role" style="swimlane;fontStyle=0;childLayout=stackLayout;horizontal=1;startSize=30;horizontalStack=0;resizeParent=1;resizeParentMax=0;resizeLast=0;collapsible=1;marginBottom=0;whiteSpace=wrap;html=1;fontSize=16;" vertex="1" parent="1">
          <mxGeometry x="249.5" y="-253" width="140" height="90" as="geometry" />
        </mxCell>
        <mxCell id="IJSfdtI_TcMY3-XAgbR3-46" value="id(pk)" style="text;strokeColor=none;fillColor=none;align=left;verticalAlign=middle;spacingLeft=4;spacingRight=4;overflow=hidden;points=[[0,0.5],[1,0.5]];portConstraint=eastwest;rotatable=0;whiteSpace=wrap;html=1;fontSize=16;" vertex="1" parent="IJSfdtI_TcMY3-XAgbR3-45">
          <mxGeometry y="30" width="140" height="30" as="geometry" />
        </mxCell>
        <mxCell id="IJSfdtI_TcMY3-XAgbR3-47" value="type" style="text;strokeColor=none;fillColor=none;align=left;verticalAlign=middle;spacingLeft=4;spacingRight=4;overflow=hidden;points=[[0,0.5],[1,0.5]];portConstraint=eastwest;rotatable=0;whiteSpace=wrap;html=1;fontSize=16;" vertex="1" parent="IJSfdtI_TcMY3-XAgbR3-45">
          <mxGeometry y="60" width="140" height="30" as="geometry" />
        </mxCell>
        <mxCell id="IJSfdtI_TcMY3-XAgbR3-49" value="" style="endArrow=none;html=1;rounded=0;fontSize=12;startSize=8;endSize=8;curved=1;exitX=0.5;exitY=0;exitDx=0;exitDy=0;" edge="1" parent="1" source="IJSfdtI_TcMY3-XAgbR3-45">
          <mxGeometry width="50" height="50" relative="1" as="geometry">
            <mxPoint x="266" y="-169" as="sourcePoint" />
            <mxPoint x="320" y="-319" as="targetPoint" />
          </mxGeometry>
        </mxCell>
        <mxCell id="IJSfdtI_TcMY3-XAgbR3-50" value="" style="endArrow=none;html=1;rounded=0;fontSize=12;startSize=8;endSize=8;curved=1;" edge="1" parent="1">
          <mxGeometry width="50" height="50" relative="1" as="geometry">
            <mxPoint x="103" y="-93" as="sourcePoint" />
            <mxPoint x="540" y="-100" as="targetPoint" />
          </mxGeometry>
        </mxCell>
        <mxCell id="IJSfdtI_TcMY3-XAgbR3-51" value="" style="endArrow=none;html=1;rounded=0;fontSize=12;startSize=8;endSize=8;curved=1;entryX=0.514;entryY=1.011;entryDx=0;entryDy=0;entryPerimeter=0;" edge="1" parent="1" target="IJSfdtI_TcMY3-XAgbR3-47">
          <mxGeometry width="50" height="50" relative="1" as="geometry">
            <mxPoint x="321" y="-98" as="sourcePoint" />
            <mxPoint x="310" y="-109" as="targetPoint" />
          </mxGeometry>
        </mxCell>
        <mxCell id="IJSfdtI_TcMY3-XAgbR3-52" value="Librarian" style="swimlane;fontStyle=0;childLayout=stackLayout;horizontal=1;startSize=30;horizontalStack=0;resizeParent=1;resizeParentMax=0;resizeLast=0;collapsible=1;marginBottom=0;whiteSpace=wrap;html=1;fontSize=16;" vertex="1" parent="1">
          <mxGeometry x="44" width="140" height="160" as="geometry" />
        </mxCell>
        <mxCell id="IJSfdtI_TcMY3-XAgbR3-53" value="id(pk)" style="text;strokeColor=none;fillColor=none;align=left;verticalAlign=middle;spacingLeft=4;spacingRight=4;overflow=hidden;points=[[0,0.5],[1,0.5]];portConstraint=eastwest;rotatable=0;whiteSpace=wrap;html=1;fontSize=16;" vertex="1" parent="IJSfdtI_TcMY3-XAgbR3-52">
          <mxGeometry y="30" width="140" height="30" as="geometry" />
        </mxCell>
        <mxCell id="IJSfdtI_TcMY3-XAgbR3-54" value="name" style="text;strokeColor=none;fillColor=none;align=left;verticalAlign=middle;spacingLeft=4;spacingRight=4;overflow=hidden;points=[[0,0.5],[1,0.5]];portConstraint=eastwest;rotatable=0;whiteSpace=wrap;html=1;fontSize=16;" vertex="1" parent="IJSfdtI_TcMY3-XAgbR3-52">
          <mxGeometry y="60" width="140" height="30" as="geometry" />
        </mxCell>
        <mxCell id="IJSfdtI_TcMY3-XAgbR3-55" value="address&lt;br&gt;phone&lt;br&gt;email" style="text;strokeColor=none;fillColor=none;align=left;verticalAlign=middle;spacingLeft=4;spacingRight=4;overflow=hidden;points=[[0,0.5],[1,0.5]];portConstraint=eastwest;rotatable=0;whiteSpace=wrap;html=1;fontSize=16;" vertex="1" parent="IJSfdtI_TcMY3-XAgbR3-52">
          <mxGeometry y="90" width="140" height="70" as="geometry" />
        </mxCell>
        <mxCell id="IJSfdtI_TcMY3-XAgbR3-56" value="" style="endArrow=none;html=1;rounded=0;fontSize=12;startSize=8;endSize=8;curved=1;" edge="1" parent="1">
          <mxGeometry width="50" height="50" relative="1" as="geometry">
            <mxPoint x="104" y="-92" as="sourcePoint" />
            <mxPoint x="104" y="-9" as="targetPoint" />
          </mxGeometry>
        </mxCell>
        <mxCell id="IJSfdtI_TcMY3-XAgbR3-57" value="Member" style="swimlane;fontStyle=0;childLayout=stackLayout;horizontal=1;startSize=30;horizontalStack=0;resizeParent=1;resizeParentMax=0;resizeLast=0;collapsible=1;marginBottom=0;whiteSpace=wrap;html=1;fontSize=16;" vertex="1" parent="1">
          <mxGeometry x="465" y="-13" width="140" height="173" as="geometry" />
        </mxCell>
        <mxCell id="IJSfdtI_TcMY3-XAgbR3-58" value="id(pk)" style="text;strokeColor=none;fillColor=none;align=left;verticalAlign=middle;spacingLeft=4;spacingRight=4;overflow=hidden;points=[[0,0.5],[1,0.5]];portConstraint=eastwest;rotatable=0;whiteSpace=wrap;html=1;fontSize=16;" vertex="1" parent="IJSfdtI_TcMY3-XAgbR3-57">
          <mxGeometry y="30" width="140" height="30" as="geometry" />
        </mxCell>
        <mxCell id="IJSfdtI_TcMY3-XAgbR3-59" value="name" style="text;strokeColor=none;fillColor=none;align=left;verticalAlign=middle;spacingLeft=4;spacingRight=4;overflow=hidden;points=[[0,0.5],[1,0.5]];portConstraint=eastwest;rotatable=0;whiteSpace=wrap;html=1;fontSize=16;" vertex="1" parent="IJSfdtI_TcMY3-XAgbR3-57">
          <mxGeometry y="60" width="140" height="30" as="geometry" />
        </mxCell>
        <mxCell id="IJSfdtI_TcMY3-XAgbR3-60" value="address&lt;br&gt;phone&lt;br&gt;email" style="text;strokeColor=none;fillColor=none;align=left;verticalAlign=middle;spacingLeft=4;spacingRight=4;overflow=hidden;points=[[0,0.5],[1,0.5]];portConstraint=eastwest;rotatable=0;whiteSpace=wrap;html=1;fontSize=16;" vertex="1" parent="IJSfdtI_TcMY3-XAgbR3-57">
          <mxGeometry y="90" width="140" height="83" as="geometry" />
        </mxCell>
        <mxCell id="IJSfdtI_TcMY3-XAgbR3-61" value="" style="endArrow=none;html=1;rounded=0;fontSize=12;startSize=8;endSize=8;curved=1;" edge="1" parent="1">
          <mxGeometry width="50" height="50" relative="1" as="geometry">
            <mxPoint x="541" y="-18" as="sourcePoint" />
            <mxPoint x="541" y="-98" as="targetPoint" />
          </mxGeometry>
        </mxCell>
        <mxCell id="IJSfdtI_TcMY3-XAgbR3-63" value="Book" style="swimlane;fontStyle=0;childLayout=stackLayout;horizontal=1;startSize=30;horizontalStack=0;resizeParent=1;resizeParentMax=0;resizeLast=0;collapsible=1;marginBottom=0;whiteSpace=wrap;html=1;fontSize=16;" vertex="1" parent="1">
          <mxGeometry x="49" y="247" width="140" height="181" as="geometry" />
        </mxCell>
        <mxCell id="IJSfdtI_TcMY3-XAgbR3-64" value="id(pk)" style="text;strokeColor=none;fillColor=none;align=left;verticalAlign=middle;spacingLeft=4;spacingRight=4;overflow=hidden;points=[[0,0.5],[1,0.5]];portConstraint=eastwest;rotatable=0;whiteSpace=wrap;html=1;fontSize=16;" vertex="1" parent="IJSfdtI_TcMY3-XAgbR3-63">
          <mxGeometry y="30" width="140" height="30" as="geometry" />
        </mxCell>
        <mxCell id="IJSfdtI_TcMY3-XAgbR3-65" value="title" style="text;strokeColor=none;fillColor=none;align=left;verticalAlign=middle;spacingLeft=4;spacingRight=4;overflow=hidden;points=[[0,0.5],[1,0.5]];portConstraint=eastwest;rotatable=0;whiteSpace=wrap;html=1;fontSize=16;" vertex="1" parent="IJSfdtI_TcMY3-XAgbR3-63">
          <mxGeometry y="60" width="140" height="30" as="geometry" />
        </mxCell>
        <mxCell id="IJSfdtI_TcMY3-XAgbR3-66" value="author&lt;br&gt;description&lt;br&gt;status" style="text;strokeColor=none;fillColor=none;align=left;verticalAlign=middle;spacingLeft=4;spacingRight=4;overflow=hidden;points=[[0,0.5],[1,0.5]];portConstraint=eastwest;rotatable=0;whiteSpace=wrap;html=1;fontSize=16;" vertex="1" parent="IJSfdtI_TcMY3-XAgbR3-63">
          <mxGeometry y="90" width="140" height="91" as="geometry" />
        </mxCell>
        <mxCell id="IJSfdtI_TcMY3-XAgbR3-67" value="Borrowed Book" style="swimlane;fontStyle=0;childLayout=stackLayout;horizontal=1;startSize=30;horizontalStack=0;resizeParent=1;resizeParentMax=0;resizeLast=0;collapsible=1;marginBottom=0;whiteSpace=wrap;html=1;fontSize=16;" vertex="1" parent="1">
          <mxGeometry x="462" y="242" width="140" height="145" as="geometry" />
        </mxCell>
        <mxCell id="IJSfdtI_TcMY3-XAgbR3-68" value="id(pk)" style="text;strokeColor=none;fillColor=none;align=left;verticalAlign=middle;spacingLeft=4;spacingRight=4;overflow=hidden;points=[[0,0.5],[1,0.5]];portConstraint=eastwest;rotatable=0;whiteSpace=wrap;html=1;fontSize=16;" vertex="1" parent="IJSfdtI_TcMY3-XAgbR3-67">
          <mxGeometry y="30" width="140" height="30" as="geometry" />
        </mxCell>
        <mxCell id="IJSfdtI_TcMY3-XAgbR3-69" value="book_id(fk)" style="text;strokeColor=none;fillColor=none;align=left;verticalAlign=middle;spacingLeft=4;spacingRight=4;overflow=hidden;points=[[0,0.5],[1,0.5]];portConstraint=eastwest;rotatable=0;whiteSpace=wrap;html=1;fontSize=16;" vertex="1" parent="IJSfdtI_TcMY3-XAgbR3-67">
          <mxGeometry y="60" width="140" height="24" as="geometry" />
        </mxCell>
        <mxCell id="IJSfdtI_TcMY3-XAgbR3-70" value="member_id (fk)&lt;br&gt;borrowed_date&lt;br&gt;returned_date" style="text;strokeColor=none;fillColor=none;align=left;verticalAlign=middle;spacingLeft=4;spacingRight=4;overflow=hidden;points=[[0,0.5],[1,0.5]];portConstraint=eastwest;rotatable=0;whiteSpace=wrap;html=1;fontSize=16;" vertex="1" parent="IJSfdtI_TcMY3-XAgbR3-67">
          <mxGeometry y="84" width="140" height="61" as="geometry" />
        </mxCell>
        <mxCell id="IJSfdtI_TcMY3-XAgbR3-71" value="" style="endArrow=none;html=1;rounded=0;fontSize=12;startSize=8;endSize=8;curved=1;exitX=0.434;exitY=1.056;exitDx=0;exitDy=0;exitPerimeter=0;" edge="1" parent="1" source="IJSfdtI_TcMY3-XAgbR3-55">
          <mxGeometry width="50" height="50" relative="1" as="geometry">
            <mxPoint x="244" y="128" as="sourcePoint" />
            <mxPoint x="105" y="242" as="targetPoint" />
          </mxGeometry>
        </mxCell>
        <mxCell id="IJSfdtI_TcMY3-XAgbR3-72" value="" style="endArrow=none;html=1;rounded=0;fontSize=12;startSize=8;endSize=8;curved=1;exitX=0.434;exitY=1.056;exitDx=0;exitDy=0;exitPerimeter=0;" edge="1" parent="1">
          <mxGeometry width="50" height="50" relative="1" as="geometry">
            <mxPoint x="536" y="163" as="sourcePoint" />
            <mxPoint x="536" y="241" as="targetPoint" />
          </mxGeometry>
        </mxCell>
      </root>
    </mxGraphModel>
  </diagram>
</mxfile>
